<?xml version="1.0" encoding="UTF-8" standalone="no"?>
<!DOCTYPE svg PUBLIC "-//W3C//DTD SVG 1.1//EN" "http://www.w3.org/Graphics/SVG/1.1/DTD/svg11.dtd">
<svg width="100%" height="100%" viewBox="0 0 201 181" version="1.1" xmlns="http://www.w3.org/2000/svg" xmlns:xlink="http://www.w3.org/1999/xlink" xml:space="preserve" style="fill-rule:evenodd;clip-rule:evenodd;stroke-linecap:round;stroke-linejoin:round;stroke-miterlimit:1.5;">
    <g transform="matrix(1,0,0,1,-540,-310)">
        <g transform="matrix(1,0,0,1,-67.2871,-47.5848)">
            <g transform="matrix(1,0,0,1,425.249,318.479)">
                <path id="tail-bowl" d="M314.018,61.752C344.797,73.113 366.5,100.375 366.5,132.166C366.5,174.147 328.654,208.23 282.038,208.23C235.422,208.23 197.576,174.147 197.576,132.166C197.576,129.749 197.702,127.359 197.947,125L291,125L291,124.507L291.04,124.507L291.04,67.873L314.018,67.873L314.018,61.752Z" style="fill:rgb(255,135,0);"/>
                <clipPath id="_clip1">
                    <path id="tail-bowl1" d="M314.018,61.752C344.797,73.113 366.5,100.375 366.5,132.166C366.5,174.147 328.654,208.23 282.038,208.23C235.422,208.23 197.576,174.147 197.576,132.166C197.576,129.749 197.702,127.359 197.947,125L291,125L291,124.507L291.04,124.507L291.04,67.873L314.018,67.873L314.018,61.752Z"/>
                </clipPath>
                <g clip-path="url(#_clip1)">
                    <path d="M294.472,19.164C389.371,29.934 423.391,89.288 352.209,232.595C232.167,283.435 136.071,170.261 147.616,108.794C153.996,74.824 248.043,-14.31 294.472,19.164Z" style="fill:rgb(231,88,1);"/>
                    <clipPath id="_clip2">
                        <path d="M294.472,19.164C389.371,29.934 423.391,89.288 352.209,232.595C232.167,283.435 136.071,170.261 147.616,108.794C153.996,74.824 248.043,-14.31 294.472,19.164Z"/>
                    </clipPath>
                    <g clip-path="url(#_clip2)">
                        <g>
                            <g transform="matrix(1.04779,0,0,1.61428,2.98567,-55.8236)">
                                <path d="M278.099,150.525C272.029,150.817 244.902,145.68 215.572,124.334C223.521,140.408 263.197,162.861 275.749,160.152L278.099,150.525Z" style="fill:rgb(255,135,0);"/>
                            </g>
                            <g transform="matrix(1.04779,0,0,1.61428,23.3977,-66.2891)">
                                <path d="M278.099,150.525C273.614,150.064 258.64,157.208 221.466,133.598C231.318,156.435 263.197,162.861 275.749,160.152L278.099,150.525Z" style="fill:rgb(255,135,0);"/>
                            </g>
                            <g transform="matrix(1.04142,0.115316,-0.177663,1.60447,56.6771,-97.1655)">
                                <path d="M278.099,150.525C273.614,150.064 249.219,127.758 210.135,117.033C222.696,148.943 263.197,162.861 275.749,160.152L278.099,150.525Z" style="fill:rgb(255,135,0);"/>
                            </g>
                            <g transform="matrix(0.999647,0.313946,-0.629337,2.0039,128.773,-225.297)">
                                <path d="M288.822,137.963C284.338,137.502 267.02,132.357 223.342,134.102C231.291,150.176 263.197,162.861 275.749,160.152L288.822,137.963Z" style="fill:rgb(255,135,0);"/>
                            </g>
                            <g transform="matrix(1.04779,0,0,1.61428,-10.21,-50.1188)">
                                <path d="M278.099,150.525C273.614,150.064 258.448,152.706 223.342,134.102C231.291,150.176 263.197,162.861 275.749,160.152L278.099,150.525Z" style="fill:rgb(255,135,0);"/>
                            </g>
                            <g transform="matrix(1.56901,0,0,3.32139,-118.728,-392.869)">
                                <path d="M340.364,163.584C355.794,139.679 282.055,120.437 253.678,131.252C253.651,151.673 253.104,178.54 253.091,188.229L340.364,163.584Z" style="fill:rgb(255,135,0);"/>
                            </g>
                        </g>
                    </g>
                    <g transform="matrix(1.19334,0,0,1,-827.412,-501.072)">
                        <rect x="850.661" y="626.072" width="151.081" height="10.092" style="fill:rgb(255,135,0);stroke:black;stroke-width:0.91px;"/>
                    </g>
                </g>
                <path id="tail-bowl2" d="M314.018,61.752C344.797,73.113 366.5,100.375 366.5,132.166C366.5,174.147 328.654,208.23 282.038,208.23C235.422,208.23 197.576,174.147 197.576,132.166C197.576,129.749 197.702,127.359 197.947,125L291,125L291,124.507L291.04,124.507L291.04,67.873L314.018,67.873L314.018,61.752Z" style="fill:none;stroke:black;stroke-width:1px;"/>
                <g id="face" transform="matrix(1,0,0,1,1,0)">
                    <path id="face-outline" d="M260,49.981L260,98.385L290,125L320,98L320,50L310,61.012C310,61.012 310,61.012 310,61.012C297.162,55.869 282.838,55.869 270,61.012C270,61.012 270,61.012 270,61.012L260,49.981Z" style="fill:rgb(255,135,0);"/>
                    <clipPath id="_clip3">
                        <path id="face-outline1" d="M260,49.981L260,98.385L290,125L320,98L320,50L310,61.012C310,61.012 310,61.012 310,61.012C297.162,55.869 282.838,55.869 270,61.012C270,61.012 270,61.012 270,61.012L260,49.981Z"/>
                    </clipPath>
                    <g clip-path="url(#_clip3)">
                        <g transform="matrix(1,0,0,1,21.1163,1.86855)">
                            <circle cx="268.899" cy="117.319" r="5.979"/>
                        </g>
                        <g id="eyes-type-2">
                            <g transform="matrix(0.866025,0.5,-0.157948,0.273574,135.688,-19.9745)">
                                <rect x="170.499" y="76.19" width="13.273" height="3.69"/>
                            </g>
                            <g transform="matrix(0.866025,-0.5,0.162623,0.281671,137.419,156.545)">
                                <rect x="170.499" y="76.19" width="13.273" height="3.69"/>
                            </g>
                        </g>
                        <g id="cheeks">
                            <g transform="matrix(-0.306886,0.177181,-0.388523,-0.45045,402.318,109.2)">
                                <path d="M273.15,91.958C276.767,102.331 277.262,119.241 283.229,136.356L253.954,135.409C252.71,116.349 264.805,99.646 273.15,91.958Z" style="fill:rgb(255,152,18);"/>
                            </g>
                            <g transform="matrix(0.306886,0.177181,0.388523,-0.45045,177.22,109.2)">
                                <path d="M273.15,91.958C276.767,102.331 277.262,119.241 283.229,136.356L253.954,135.409C252.71,116.349 264.805,99.646 273.15,91.958Z" style="fill:rgb(255,152,18);"/>
                            </g>
                        </g>
                        <g id="inner-ear">
                            <g transform="matrix(1.19977,-0.173539,0.407018,1.40509,-79.9866,22.9675)">
                                <path d="M265.956,53.955L269.687,60.239C267.257,60.336 264.908,61.376 263.09,62.436L265.956,53.955Z" style="fill:rgb(207,103,6);"/>
                            </g>
                            <g transform="matrix(-1.19977,-0.173539,-0.407018,1.40509,659.994,23.0979)">
                                <path d="M265.956,53.955L269.882,60.286C267.598,60.704 265.199,61.408 262.946,62.848L265.956,53.955Z" style="fill:rgb(207,103,6);"/>
                            </g>
                        </g>
                    </g>
                    <path id="face-outline2" d="M260,49.981L260,98.385L290,125L320,98L320,50L310,61.012C310,61.012 310,61.012 310,61.012C297.162,55.869 282.838,55.869 270,61.012C270,61.012 270,61.012 270,61.012L260,49.981Z" style="fill:none;stroke:black;stroke-width:1px;"/>
                </g>
            </g>
            <g>
                <g transform="matrix(1,0,0,1,0,-6)">
                    <path d="M639.586,436.69C639.586,436.69 631.15,426.088 638.294,416.54C645.439,406.992 644.23,397.445 638.294,391.509" style="fill:none;stroke:black;stroke-width:1px;"/>
                </g>
                <g transform="matrix(1,0,0,1,16.6059,-16.021)">
                    <path d="M639.586,436.69C639.586,436.69 631.15,426.088 638.294,416.54C645.439,406.992 644.23,397.445 638.294,391.509" style="fill:none;stroke:black;stroke-width:1px;"/>
                </g>
                <g transform="matrix(1,0,0,1,32.3995,-6)">
                    <path d="M639.586,436.69C639.586,436.69 631.15,426.088 638.294,416.54C645.439,406.992 644.23,397.445 638.294,391.509" style="fill:none;stroke:black;stroke-width:1px;"/>
                </g>
            </g>
        </g>
    </g>
</svg>
