<?xml version="1.0" encoding="UTF-8" standalone="no"?>
<!DOCTYPE svg PUBLIC "-//W3C//DTD SVG 1.1//EN" "http://www.w3.org/Graphics/SVG/1.1/DTD/svg11.dtd">
<svg width="100%" height="100%" viewBox="0 0 201 181" version="1.1" xmlns="http://www.w3.org/2000/svg" xmlns:xlink="http://www.w3.org/1999/xlink" xml:space="preserve" style="fill-rule:evenodd;clip-rule:evenodd;stroke-linecap:round;stroke-linejoin:round;stroke-miterlimit:1.5;">
    <g transform="matrix(1,0,0,1,-540,-310)">
        <g transform="matrix(1,0,0,1,-67.2871,-47.5848)">
            <g transform="matrix(1,0,0,1,425.249,318.479)">
                <path id="tail-bowl" d="M314.018,61.752C344.797,73.113 366.5,100.375 366.5,132.166C366.5,174.147 328.654,208.23 282.038,208.23C235.422,208.23 197.576,174.147 197.576,132.166C197.576,129.749 197.702,127.359 197.947,125L291,125L291,124.507L291.04,124.507L291.04,67.873L314.018,67.873L314.018,61.752Z" style="fill:rgb(255,135,0);"/>
                <clipPath id="_clip1">
                    <path id="tail-bowl1" d="M314.018,61.752C344.797,73.113 366.5,100.375 366.5,132.166C366.5,174.147 328.654,208.23 282.038,208.23C235.422,208.23 197.576,174.147 197.576,132.166C197.576,129.749 197.702,127.359 197.947,125L291,125L291,124.507L291.04,124.507L291.04,67.873L314.018,67.873L314.018,61.752Z"/>
                </clipPath>
                <g clip-path="url(#_clip1)">
                    <path d="M294.472,19.164C389.371,29.934 423.391,89.288 352.209,232.595C232.167,283.435 136.071,170.261 147.616,108.794C153.996,74.824 248.043,-14.31 294.472,19.164Z" style="fill:rgb(231,88,1);"/>
                    <clipPath id="_clip2">
                        <path d="M294.472,19.164C389.371,29.934 423.391,89.288 352.209,232.595C232.167,283.435 136.071,170.261 147.616,108.794C153.996,74.824 248.043,-14.31 294.472,19.164Z"/>
                    </clipPath>
                    <g clip-path="url(#_clip2)">
                        <g>
                            <g transform="matrix(1.04779,0,0,1.61428,2.98567,-55.8236)">
                                <path d="M278.099,150.525C272.029,150.817 244.902,145.68 215.572,124.334C223.521,140.408 263.197,162.861 275.749,160.152L278.099,150.525Z" style="fill:rgb(255,135,0);"/>
                            </g>
                            <g transform="matrix(1.04779,0,0,1.61428,23.3977,-66.2891)">
                                <path d="M278.099,150.525C273.614,150.064 258.64,157.208 221.466,133.598C231.318,156.435 263.197,162.861 275.749,160.152L278.099,150.525Z" style="fill:rgb(255,135,0);"/>
                            </g>
                            <g transform="matrix(1.04142,0.115316,-0.177663,1.60447,56.6771,-97.1655)">
                                <path d="M278.099,150.525C273.614,150.064 249.219,127.758 210.135,117.033C222.696,148.943 263.197,162.861 275.749,160.152L278.099,150.525Z" style="fill:rgb(255,135,0);"/>
                            </g>
                            <g transform="matrix(0.999647,0.313946,-0.629337,2.0039,128.773,-225.297)">
                                <path d="M288.822,137.963C284.338,137.502 267.02,132.357 223.342,134.102C231.291,150.176 263.197,162.861 275.749,160.152L288.822,137.963Z" style="fill:rgb(255,135,0);"/>
                            </g>
                            <g transform="matrix(1.04779,0,0,1.61428,-10.21,-50.1188)">
                                <path d="M278.099,150.525C273.614,150.064 258.448,152.706 223.342,134.102C231.291,150.176 263.197,162.861 275.749,160.152L278.099,150.525Z" style="fill:rgb(255,135,0);"/>
                            </g>
                            <g transform="matrix(1.56901,0,0,3.32139,-118.728,-392.869)">
                                <path d="M340.364,163.584C355.794,139.679 282.055,120.437 253.678,131.252C253.651,151.673 253.104,178.54 253.091,188.229L340.364,163.584Z" style="fill:rgb(255,135,0);"/>
                            </g>
                        </g>
                    </g>
                    <g transform="matrix(1.19334,0,0,1,-827.412,-501.072)">
                        <rect x="850.661" y="626.072" width="151.081" height="10.092" style="fill:rgb(255,135,0);stroke:black;stroke-width:0.91px;"/>
                    </g>
                </g>
                <path id="tail-bowl2" d="M314.018,61.752C344.797,73.113 366.5,100.375 366.5,132.166C366.5,174.147 328.654,208.23 282.038,208.23C235.422,208.23 197.576,174.147 197.576,132.166C197.576,129.749 197.702,127.359 197.947,125L291,125L291,124.507L291.04,124.507L291.04,67.873L314.018,67.873L314.018,61.752Z" style="fill:none;stroke:black;stroke-width:1px;"/>
                <g id="face" transform="matrix(1,0,0,1,1,0)">
                    <path id="face-outline" d="M260,49.981L260,98.385L290,125L320,98L320,50L310,61.012C310,61.012 310,61.012 310,61.012C297.162,55.869 282.838,55.869 270,61.012C270,61.012 270,61.012 270,61.012L260,49.981Z" style="fill:rgb(255,135,0);"/>
                    <clipPath id="_clip3">
                        <path id="face-outline1" d="M260,49.981L260,98.385L290,125L320,98L320,50L310,61.012C310,61.012 310,61.012 310,61.012C297.162,55.869 282.838,55.869 270,61.012C270,61.012 270,61.012 270,61.012L260,49.981Z"/>
                    </clipPath>
                    <g clip-path="url(#_clip3)">
                        <g transform="matrix(1,0,0,1,21.1163,1.86855)">
                            <circle cx="268.899" cy="117.319" r="5.979"/>
                        </g>
                        <g id="eyes-type-2">
                            <g transform="matrix(0.866025,0.5,-0.157948,0.273574,135.688,-19.9745)">
                                <rect x="170.499" y="76.19" width="13.273" height="3.69"/>
                            </g>
                            <g transform="matrix(0.866025,-0.5,0.162623,0.281671,137.419,156.545)">
                                <rect x="170.499" y="76.19" width="13.273" height="3.69"/>
                            </g>
                        </g>
                        <g id="cheeks">
                            <g transform="matrix(-0.306886,0.177181,-0.388523,-0.45045,402.318,109.2)">
                                <path d="M273.15,91.958C276.767,102.331 277.262,119.241 283.229,136.356L253.954,135.409C252.71,116.349 264.805,99.646 273.15,91.958Z" style="fill:rgb(255,152,18);"/>
                            </g>
                            <g transform="matrix(0.306886,0.177181,0.388523,-0.45045,177.22,109.2)">
                                <path d="M273.15,91.958C276.767,102.331 277.262,119.241 283.229,136.356L253.954,135.409C252.71,116.349 264.805,99.646 273.15,91.958Z" style="fill:rgb(255,152,18);"/>
                            </g>
                        </g>
                        <g id="inner-ear">
                            <g transform="matrix(1.19977,-0.173539,0.407018,1.40509,-79.9866,22.9675)">
                                <path d="M265.956,53.955L269.687,60.239C267.257,60.336 264.908,61.376 263.09,62.436L265.956,53.955Z" style="fill:rgb(207,103,6);"/>
                            </g>
                            <g transform="matrix(-1.19977,-0.173539,-0.407018,1.40509,659.994,23.0979)">
                                <path d="M265.956,53.955L269.882,60.286C267.598,60.704 265.199,61.408 262.946,62.848L265.956,53.955Z" style="fill:rgb(207,103,6);"/>
                            </g>
                        </g>
                    </g>
                    <path id="face-outline2" d="M260,49.981L260,98.385L290,125L320,98L320,50L310,61.012C310,61.012 310,61.012 310,61.012C297.162,55.869 282.838,55.869 270,61.012C270,61.012 270,61.012 270,61.012L260,49.981Z" style="fill:none;stroke:black;stroke-width:1px;"/>
                </g>
            </g>
            <g>
                <g transform="matrix(1,0,0,1,0,-6)">
                    <path d="M638.369,391.573L638.444,391.638L638.592,391.768L638.738,391.9L638.883,392.034L639.026,392.169L639.167,392.306L639.307,392.444L639.446,392.584L639.582,392.725L639.718,392.868L639.851,393.013L639.983,393.159L640.113,393.306L640.241,393.455L640.368,393.605L640.493,393.757L640.617,393.911L640.738,394.065L640.858,394.222L640.976,394.38L641.092,394.539L641.207,394.699L641.319,394.861L641.43,395.025L641.539,395.19L641.646,395.356L641.751,395.524L641.855,395.693L641.956,395.863L642.056,396.035L642.153,396.208L642.249,396.383L642.342,396.559L642.434,396.736L642.524,396.915L642.611,397.095L642.697,397.276L642.78,397.459L642.845,397.605L642.862,397.643L642.94,397.828L643.016,398.015L643.09,398.203L643.162,398.393L643.232,398.583L643.299,398.775L643.365,398.968L643.428,399.162L643.489,399.358L643.548,399.554L643.604,399.752L643.659,399.951L643.711,400.151L643.76,400.352L643.808,400.554L643.853,400.758L643.895,400.962L643.936,401.168L643.974,401.374L644.009,401.582L644.042,401.791L644.073,402.001L644.101,402.212L644.127,402.424L644.151,402.637L644.172,402.851L644.19,403.066L644.206,403.281L644.22,403.498L644.23,403.716L644.239,403.935L644.24,403.987L644.243,404.154L644.245,404.375L644.244,404.596L644.24,404.818L644.234,405.041L644.225,405.265L644.214,405.49L644.199,405.715L644.183,405.941L644.163,406.168L644.141,406.396L644.116,406.624L644.088,406.854L644.07,406.992L644.057,407.083L644.021,407.313L643.983,407.544L643.942,407.775L643.898,408.007L643.851,408.24L643.802,408.473L643.75,408.706L643.695,408.94L643.637,409.175L643.585,409.377L643.575,409.41L643.506,409.644L643.434,409.878L643.359,410.112L643.281,410.347L643.278,410.355L643.197,410.581L643.11,410.816L643.021,411.05L642.928,411.285L642.833,411.52L642.734,411.755L642.733,411.758L642.631,411.989L642.525,412.224L642.416,412.458L642.304,412.693L642.189,412.928L642.071,413.163L641.95,413.398L641.826,413.633L641.699,413.868L641.569,414.103L641.436,414.338L641.3,414.573L641.162,414.809L641.02,415.044L640.976,415.115L640.874,415.278L640.724,415.512L640.571,415.746L640.415,415.98L640.256,416.213L640.095,416.447L639.93,416.68L639.762,416.914L639.59,417.147L639.42,417.375L639.34,417.482L639.265,417.584L639.192,417.686L639.119,417.787L639.048,417.889L638.979,417.991L638.91,418.093L638.907,418.098L638.842,418.195L638.776,418.296L638.71,418.397L638.646,418.498L638.583,418.6L638.521,418.701L638.46,418.802L638.401,418.904L638.343,419.005L638.286,419.106L638.239,419.192L638.23,419.208L638.173,419.308L638.118,419.409L638.064,419.509L638.012,419.61L637.96,419.71L637.909,419.811L637.86,419.911L637.838,419.958L637.81,420.011L637.76,420.111L637.711,420.21L637.663,420.31L637.616,420.409L637.57,420.509L637.525,420.609L637.481,420.709L637.438,420.809L637.397,420.909L637.356,421.008L637.316,421.108L637.277,421.209L637.239,421.309L637.203,421.409L637.167,421.509L637.132,421.609L637.1,421.703L637.098,421.709L637.064,421.809L637.03,421.91L636.998,422.01L636.967,422.11L636.936,422.21L636.907,422.31L636.878,422.41L636.85,422.511L636.823,422.611L636.797,422.711L636.772,422.812L636.748,422.912L636.725,423.013L636.702,423.113L636.68,423.213L636.66,423.314L636.64,423.414L636.621,423.515L636.602,423.615L636.585,423.716L636.568,423.816L636.565,423.838L636.552,423.916L636.536,424.017L636.52,424.117L636.506,424.217L636.492,424.318L636.479,424.418L636.467,424.518L636.456,424.618L636.445,424.719L636.435,424.819L636.426,424.919L636.418,425.019L636.411,425.119L636.404,425.219L636.398,425.318L636.392,425.417L636.383,425.618L636.378,425.816L636.374,426.015L636.374,426.213L636.376,426.411L636.381,426.608L636.388,426.804L636.398,427L636.41,427.195L636.425,427.39L636.441,427.584L636.461,427.777L636.482,427.969L636.505,428.16L636.531,428.35L636.558,428.539L636.588,428.727L636.594,428.765L636.618,428.915L636.649,429.101L636.682,429.287L636.717,429.471L636.754,429.653L636.792,429.835L636.832,430.015L636.874,430.194L636.916,430.371L636.96,430.547L637.006,430.721L637.052,430.894L637.1,431.065L637.149,431.235L637.199,431.402L637.25,431.568L637.301,431.733L637.354,431.895L637.407,432.055L637.461,432.214L637.516,432.37L637.571,432.524L637.627,432.677L637.683,432.827L637.739,432.975L637.796,433.121L637.853,433.264L637.911,433.405L637.968,433.544L638.025,433.681L638.083,433.815L638.14,433.946L638.197,434.075L638.254,434.202L638.311,434.325L638.367,434.447L638.422,434.565L638.533,434.794L638.64,435.011L638.745,435.217L638.845,435.411L638.942,435.592L639.034,435.761L639.121,435.917L639.202,436.059L639.277,436.188L639.345,436.303L639.406,436.404L639.459,436.49L639.503,436.561L639.535,436.61L639.565,436.658L639.586,436.69L639.56,436.662L639.522,436.62L639.483,436.577L639.427,436.514L639.361,436.437L639.284,436.347L639.198,436.244L639.103,436.128L638.999,436L638.887,435.859L638.767,435.706L638.641,435.541L638.509,435.364L638.37,435.175L638.227,434.975L638.079,434.765L638.003,434.655L637.927,434.542L637.849,434.427L637.771,434.309L637.692,434.189L637.613,434.065L637.532,433.94L637.452,433.811L637.371,433.68L637.289,433.547L637.207,433.411L637.125,433.272L637.043,433.131L636.961,432.988L636.878,432.842L636.796,432.694L636.714,432.543L636.632,432.39L636.55,432.235L636.469,432.077L636.388,431.917L636.308,431.755L636.228,431.59L636.148,431.423L636.07,431.254L635.992,431.083L635.915,430.91L635.839,430.734L635.764,430.556L635.69,430.376L635.617,430.195L635.546,430.01L635.475,429.824L635.406,429.636L635.339,429.446L635.273,429.254L635.221,429.099L635.209,429.06L635.148,428.863L635.088,428.665L635.031,428.464L634.975,428.262L634.922,428.058L634.87,427.852L634.821,427.644L634.774,427.435L634.729,427.223L634.687,427.01L634.647,426.795L634.61,426.579L634.575,426.361L634.543,426.141L634.514,425.919L634.488,425.696L634.464,425.473L634.454,425.358L634.444,425.245L634.435,425.131L634.427,425.017L634.42,424.902L634.413,424.787L634.408,424.672L634.403,424.556L634.399,424.44L634.396,424.323L634.394,424.207L634.392,424.089L634.392,423.972L634.392,423.854L634.394,423.736L634.395,423.643L634.396,423.617L634.4,423.499L634.406,423.379L634.412,423.26L634.419,423.14L634.427,423.02L634.436,422.9L634.447,422.779L634.458,422.658L634.47,422.537L634.483,422.415L634.497,422.294L634.513,422.172L634.529,422.049L634.547,421.927L634.565,421.804L634.585,421.681L634.606,421.557L634.628,421.434L634.651,421.31L634.675,421.186L634.701,421.061L634.702,421.053L634.728,420.937L634.757,420.813L634.787,420.688L634.819,420.564L634.851,420.439L634.885,420.314L634.92,420.188L634.956,420.063L634.994,419.937L635.032,419.812L635.072,419.686L635.113,419.56L635.156,419.434L635.2,419.307L635.245,419.181L635.291,419.055L635.339,418.928L635.365,418.86L635.389,418.802L635.443,418.677L635.497,418.551L635.553,418.426L635.61,418.3L635.669,418.175L635.729,418.049L635.79,417.924L635.8,417.904L635.854,417.799L635.92,417.675L635.987,417.55L636.056,417.426L636.126,417.302L636.197,417.177L636.27,417.053L636.344,416.929L636.419,416.805L636.497,416.681L636.571,416.563L636.575,416.558L636.656,416.435L636.738,416.312L636.822,416.189L636.907,416.067L636.994,415.945L637.083,415.823L637.169,415.706L637.33,415.486L637.485,415.272L637.636,415.058L637.785,414.843L637.931,414.63L638.073,414.416L638.213,414.203L638.35,413.99L638.484,413.777L638.575,413.629L638.615,413.564L638.745,413.353L638.872,413.142L638.997,412.931L639.118,412.721L639.236,412.511L639.352,412.301L639.465,412.091L639.575,411.881L639.682,411.672L639.787,411.463L639.889,411.255L639.988,411.047L640.084,410.839L640.177,410.634L640.178,410.632L640.27,410.425L640.361,410.219L640.448,410.014L640.533,409.809L640.615,409.604L640.692,409.406L640.695,409.399L640.775,409.196L640.852,408.993L640.927,408.791L640.999,408.589L641.009,408.561L641.074,408.388L641.147,408.189L641.217,407.989L641.285,407.79L641.35,407.59L641.413,407.391L641.473,407.193L641.531,406.994L641.587,406.796L641.639,406.598L641.66,406.519L641.691,406.401L641.742,406.204L641.789,406.007L641.835,405.81L641.878,405.614L641.919,405.418L641.957,405.222L641.993,405.027L642.026,404.831L642.057,404.636L642.086,404.442L642.112,404.247L642.136,404.053L642.152,403.906L642.158,403.859L642.179,403.666L642.197,403.473L642.213,403.28L642.227,403.087L642.239,402.895L642.248,402.703L642.255,402.512L642.259,402.32L642.262,402.129L642.262,401.939L642.259,401.749L642.255,401.559L642.248,401.369L642.239,401.18L642.227,400.991L642.213,400.803L642.198,400.615L642.179,400.428L642.159,400.241L642.136,400.054L642.111,399.868L642.084,399.682L642.055,399.497L642.023,399.312L641.989,399.128L641.953,398.944L641.915,398.761L641.875,398.578L641.832,398.396L641.787,398.215L641.74,398.034L641.73,397.996L641.692,397.853L641.642,397.673L641.589,397.493L641.534,397.314L641.478,397.135L641.419,396.957L641.358,396.78L641.294,396.603L641.229,396.427L641.161,396.252L641.091,396.077L641.02,395.903L640.946,395.729L640.87,395.557L640.791,395.385L640.711,395.214L640.629,395.043L640.544,394.873L640.457,394.704L640.369,394.536L640.278,394.369L640.185,394.202L640.09,394.037L639.993,393.872L639.894,393.708L639.793,393.545L639.689,393.382L639.584,393.221L639.477,393.06L639.368,392.901L639.256,392.742L639.143,392.585L639.028,392.428L638.91,392.272L638.791,392.118L638.67,391.964L638.547,391.811L638.421,391.66L638.358,391.584L638.294,391.509L638.369,391.573Z"/>
                </g>
                <g transform="matrix(1,0,0,1,16.6059,-16.021)">
                    <path d="M638.369,391.573L638.444,391.638L638.592,391.768L638.738,391.9L638.883,392.034L639.026,392.169L639.167,392.306L639.307,392.444L639.446,392.584L639.582,392.725L639.718,392.868L639.851,393.013L639.983,393.159L640.113,393.306L640.241,393.455L640.368,393.605L640.493,393.757L640.617,393.911L640.738,394.065L640.858,394.222L640.976,394.38L641.092,394.539L641.207,394.699L641.319,394.861L641.43,395.025L641.539,395.19L641.646,395.356L641.751,395.524L641.855,395.693L641.956,395.863L642.056,396.035L642.153,396.208L642.249,396.383L642.342,396.559L642.434,396.736L642.524,396.915L642.611,397.095L642.697,397.276L642.78,397.459L642.845,397.605L642.862,397.643L642.94,397.828L643.016,398.015L643.09,398.203L643.162,398.393L643.232,398.583L643.299,398.775L643.365,398.968L643.428,399.162L643.489,399.358L643.548,399.554L643.604,399.752L643.659,399.951L643.711,400.151L643.76,400.352L643.808,400.554L643.853,400.758L643.895,400.962L643.936,401.168L643.974,401.374L644.009,401.582L644.042,401.791L644.073,402.001L644.101,402.212L644.127,402.424L644.151,402.637L644.172,402.851L644.19,403.066L644.206,403.281L644.22,403.498L644.23,403.716L644.239,403.935L644.24,403.987L644.243,404.154L644.245,404.375L644.244,404.596L644.24,404.818L644.234,405.041L644.225,405.265L644.214,405.49L644.199,405.715L644.183,405.941L644.163,406.168L644.141,406.396L644.116,406.624L644.088,406.854L644.07,406.992L644.057,407.083L644.021,407.313L643.983,407.544L643.942,407.775L643.898,408.007L643.851,408.24L643.802,408.473L643.75,408.706L643.695,408.94L643.637,409.175L643.585,409.377L643.575,409.41L643.506,409.644L643.434,409.878L643.359,410.112L643.281,410.347L643.278,410.355L643.197,410.581L643.11,410.816L643.021,411.05L642.928,411.285L642.833,411.52L642.734,411.755L642.733,411.758L642.631,411.989L642.525,412.224L642.416,412.458L642.304,412.693L642.189,412.928L642.071,413.163L641.95,413.398L641.826,413.633L641.699,413.868L641.569,414.103L641.436,414.338L641.3,414.573L641.162,414.809L641.02,415.044L640.976,415.115L640.874,415.278L640.724,415.512L640.571,415.746L640.415,415.98L640.256,416.213L640.095,416.447L639.93,416.68L639.762,416.914L639.59,417.147L639.42,417.375L639.34,417.482L639.265,417.584L639.192,417.686L639.119,417.787L639.048,417.889L638.979,417.991L638.91,418.093L638.907,418.098L638.842,418.195L638.776,418.296L638.71,418.397L638.646,418.498L638.583,418.6L638.521,418.701L638.46,418.802L638.401,418.904L638.343,419.005L638.286,419.106L638.239,419.192L638.23,419.208L638.173,419.308L638.118,419.409L638.064,419.509L638.012,419.61L637.96,419.71L637.909,419.811L637.86,419.911L637.838,419.958L637.81,420.011L637.76,420.111L637.711,420.21L637.663,420.31L637.616,420.409L637.57,420.509L637.525,420.609L637.481,420.709L637.438,420.809L637.397,420.909L637.356,421.008L637.316,421.108L637.277,421.209L637.239,421.309L637.203,421.409L637.167,421.509L637.132,421.609L637.1,421.703L637.098,421.709L637.064,421.809L637.03,421.91L636.998,422.01L636.967,422.11L636.936,422.21L636.907,422.31L636.878,422.41L636.85,422.511L636.823,422.611L636.797,422.711L636.772,422.812L636.748,422.912L636.725,423.013L636.702,423.113L636.68,423.213L636.66,423.314L636.64,423.414L636.621,423.515L636.602,423.615L636.585,423.716L636.568,423.816L636.565,423.838L636.552,423.916L636.536,424.017L636.52,424.117L636.506,424.217L636.492,424.318L636.479,424.418L636.467,424.518L636.456,424.618L636.445,424.719L636.435,424.819L636.426,424.919L636.418,425.019L636.411,425.119L636.404,425.219L636.398,425.318L636.392,425.417L636.383,425.618L636.378,425.816L636.374,426.015L636.374,426.213L636.376,426.411L636.381,426.608L636.388,426.804L636.398,427L636.41,427.195L636.425,427.39L636.441,427.584L636.461,427.777L636.482,427.969L636.505,428.16L636.531,428.35L636.558,428.539L636.588,428.727L636.594,428.765L636.618,428.915L636.649,429.101L636.682,429.287L636.717,429.471L636.754,429.653L636.792,429.835L636.832,430.015L636.874,430.194L636.916,430.371L636.96,430.547L637.006,430.721L637.052,430.894L637.1,431.065L637.149,431.235L637.199,431.402L637.25,431.568L637.301,431.733L637.354,431.895L637.407,432.055L637.461,432.214L637.516,432.37L637.571,432.524L637.627,432.677L637.683,432.827L637.739,432.975L637.796,433.121L637.853,433.264L637.911,433.405L637.968,433.544L638.025,433.681L638.083,433.815L638.14,433.946L638.197,434.075L638.254,434.202L638.311,434.325L638.367,434.447L638.422,434.565L638.533,434.794L638.64,435.011L638.745,435.217L638.845,435.411L638.942,435.592L639.034,435.761L639.121,435.917L639.202,436.059L639.277,436.188L639.345,436.303L639.406,436.404L639.459,436.49L639.503,436.561L639.535,436.61L639.565,436.658L639.586,436.69L639.56,436.662L639.522,436.62L639.483,436.577L639.427,436.514L639.361,436.437L639.284,436.347L639.198,436.244L639.103,436.128L638.999,436L638.887,435.859L638.767,435.706L638.641,435.541L638.509,435.364L638.37,435.175L638.227,434.975L638.079,434.765L638.003,434.655L637.927,434.542L637.849,434.427L637.771,434.309L637.692,434.189L637.613,434.065L637.532,433.94L637.452,433.811L637.371,433.68L637.289,433.547L637.207,433.411L637.125,433.272L637.043,433.131L636.961,432.988L636.878,432.842L636.796,432.694L636.714,432.543L636.632,432.39L636.55,432.235L636.469,432.077L636.388,431.917L636.308,431.755L636.228,431.59L636.148,431.423L636.07,431.254L635.992,431.083L635.915,430.91L635.839,430.734L635.764,430.556L635.69,430.376L635.617,430.195L635.546,430.01L635.475,429.824L635.406,429.636L635.339,429.446L635.273,429.254L635.221,429.099L635.209,429.06L635.148,428.863L635.088,428.665L635.031,428.464L634.975,428.262L634.922,428.058L634.87,427.852L634.821,427.644L634.774,427.435L634.729,427.223L634.687,427.01L634.647,426.795L634.61,426.579L634.575,426.361L634.543,426.141L634.514,425.919L634.488,425.696L634.464,425.473L634.454,425.358L634.444,425.245L634.435,425.131L634.427,425.017L634.42,424.902L634.413,424.787L634.408,424.672L634.403,424.556L634.399,424.44L634.396,424.323L634.394,424.207L634.392,424.089L634.392,423.972L634.392,423.854L634.394,423.736L634.395,423.643L634.396,423.617L634.4,423.499L634.406,423.379L634.412,423.26L634.419,423.14L634.427,423.02L634.436,422.9L634.447,422.779L634.458,422.658L634.47,422.537L634.483,422.415L634.497,422.294L634.513,422.172L634.529,422.049L634.547,421.927L634.565,421.804L634.585,421.681L634.606,421.557L634.628,421.434L634.651,421.31L634.675,421.186L634.701,421.061L634.702,421.053L634.728,420.937L634.757,420.813L634.787,420.688L634.819,420.564L634.851,420.439L634.885,420.314L634.92,420.188L634.956,420.063L634.994,419.937L635.032,419.812L635.072,419.686L635.113,419.56L635.156,419.434L635.2,419.307L635.245,419.181L635.291,419.055L635.339,418.928L635.365,418.86L635.389,418.802L635.443,418.677L635.497,418.551L635.553,418.426L635.61,418.3L635.669,418.175L635.729,418.049L635.79,417.924L635.8,417.904L635.854,417.799L635.92,417.675L635.987,417.55L636.056,417.426L636.126,417.302L636.197,417.177L636.27,417.053L636.344,416.929L636.419,416.805L636.497,416.681L636.571,416.563L636.575,416.558L636.656,416.435L636.738,416.312L636.822,416.189L636.907,416.067L636.994,415.945L637.083,415.823L637.169,415.706L637.33,415.486L637.485,415.272L637.636,415.058L637.785,414.843L637.931,414.63L638.073,414.416L638.213,414.203L638.35,413.99L638.484,413.777L638.575,413.629L638.615,413.564L638.745,413.353L638.872,413.142L638.997,412.931L639.118,412.721L639.236,412.511L639.352,412.301L639.465,412.091L639.575,411.881L639.682,411.672L639.787,411.463L639.889,411.255L639.988,411.047L640.084,410.839L640.177,410.634L640.178,410.632L640.27,410.425L640.361,410.219L640.448,410.014L640.533,409.809L640.615,409.604L640.692,409.406L640.695,409.399L640.775,409.196L640.852,408.993L640.927,408.791L640.999,408.589L641.009,408.561L641.074,408.388L641.147,408.189L641.217,407.989L641.285,407.79L641.35,407.59L641.413,407.391L641.473,407.193L641.531,406.994L641.587,406.796L641.639,406.598L641.66,406.519L641.691,406.401L641.742,406.204L641.789,406.007L641.835,405.81L641.878,405.614L641.919,405.418L641.957,405.222L641.993,405.027L642.026,404.831L642.057,404.636L642.086,404.442L642.112,404.247L642.136,404.053L642.152,403.906L642.158,403.859L642.179,403.666L642.197,403.473L642.213,403.28L642.227,403.087L642.239,402.895L642.248,402.703L642.255,402.512L642.259,402.32L642.262,402.129L642.262,401.939L642.259,401.749L642.255,401.559L642.248,401.369L642.239,401.18L642.227,400.991L642.213,400.803L642.198,400.615L642.179,400.428L642.159,400.241L642.136,400.054L642.111,399.868L642.084,399.682L642.055,399.497L642.023,399.312L641.989,399.128L641.953,398.944L641.915,398.761L641.875,398.578L641.832,398.396L641.787,398.215L641.74,398.034L641.73,397.996L641.692,397.853L641.642,397.673L641.589,397.493L641.534,397.314L641.478,397.135L641.419,396.957L641.358,396.78L641.294,396.603L641.229,396.427L641.161,396.252L641.091,396.077L641.02,395.903L640.946,395.729L640.87,395.557L640.791,395.385L640.711,395.214L640.629,395.043L640.544,394.873L640.457,394.704L640.369,394.536L640.278,394.369L640.185,394.202L640.09,394.037L639.993,393.872L639.894,393.708L639.793,393.545L639.689,393.382L639.584,393.221L639.477,393.06L639.368,392.901L639.256,392.742L639.143,392.585L639.028,392.428L638.91,392.272L638.791,392.118L638.67,391.964L638.547,391.811L638.421,391.66L638.358,391.584L638.294,391.509L638.369,391.573Z"/>
                </g>
                <g transform="matrix(1,0,0,1,32.3995,-6)">
                    <path d="M638.369,391.573L638.444,391.638L638.592,391.768L638.738,391.9L638.883,392.034L639.026,392.169L639.167,392.306L639.307,392.444L639.446,392.584L639.582,392.725L639.718,392.868L639.851,393.013L639.983,393.159L640.113,393.306L640.241,393.455L640.368,393.605L640.493,393.757L640.617,393.911L640.738,394.065L640.858,394.222L640.976,394.38L641.092,394.539L641.207,394.699L641.319,394.861L641.43,395.025L641.539,395.19L641.646,395.356L641.751,395.524L641.855,395.693L641.956,395.863L642.056,396.035L642.153,396.208L642.249,396.383L642.342,396.559L642.434,396.736L642.524,396.915L642.611,397.095L642.697,397.276L642.78,397.459L642.845,397.605L642.862,397.643L642.94,397.828L643.016,398.015L643.09,398.203L643.162,398.393L643.232,398.583L643.299,398.775L643.365,398.968L643.428,399.162L643.489,399.358L643.548,399.554L643.604,399.752L643.659,399.951L643.711,400.151L643.76,400.352L643.808,400.554L643.853,400.758L643.895,400.962L643.936,401.168L643.974,401.374L644.009,401.582L644.042,401.791L644.073,402.001L644.101,402.212L644.127,402.424L644.151,402.637L644.172,402.851L644.19,403.066L644.206,403.281L644.22,403.498L644.23,403.716L644.239,403.935L644.24,403.987L644.243,404.154L644.245,404.375L644.244,404.596L644.24,404.818L644.234,405.041L644.225,405.265L644.214,405.49L644.199,405.715L644.183,405.941L644.163,406.168L644.141,406.396L644.116,406.624L644.088,406.854L644.07,406.992L644.057,407.083L644.021,407.313L643.983,407.544L643.942,407.775L643.898,408.007L643.851,408.24L643.802,408.473L643.75,408.706L643.695,408.94L643.637,409.175L643.585,409.377L643.575,409.41L643.506,409.644L643.434,409.878L643.359,410.112L643.281,410.347L643.278,410.355L643.197,410.581L643.11,410.816L643.021,411.05L642.928,411.285L642.833,411.52L642.734,411.755L642.733,411.758L642.631,411.989L642.525,412.224L642.416,412.458L642.304,412.693L642.189,412.928L642.071,413.163L641.95,413.398L641.826,413.633L641.699,413.868L641.569,414.103L641.436,414.338L641.3,414.573L641.162,414.809L641.02,415.044L640.976,415.115L640.874,415.278L640.724,415.512L640.571,415.746L640.415,415.98L640.256,416.213L640.095,416.447L639.93,416.68L639.762,416.914L639.59,417.147L639.42,417.375L639.34,417.482L639.265,417.584L639.192,417.686L639.119,417.787L639.048,417.889L638.979,417.991L638.91,418.093L638.907,418.098L638.842,418.195L638.776,418.296L638.71,418.397L638.646,418.498L638.583,418.6L638.521,418.701L638.46,418.802L638.401,418.904L638.343,419.005L638.286,419.106L638.239,419.192L638.23,419.208L638.173,419.308L638.118,419.409L638.064,419.509L638.012,419.61L637.96,419.71L637.909,419.811L637.86,419.911L637.838,419.958L637.81,420.011L637.76,420.111L637.711,420.21L637.663,420.31L637.616,420.409L637.57,420.509L637.525,420.609L637.481,420.709L637.438,420.809L637.397,420.909L637.356,421.008L637.316,421.108L637.277,421.209L637.239,421.309L637.203,421.409L637.167,421.509L637.132,421.609L637.1,421.703L637.098,421.709L637.064,421.809L637.03,421.91L636.998,422.01L636.967,422.11L636.936,422.21L636.907,422.31L636.878,422.41L636.85,422.511L636.823,422.611L636.797,422.711L636.772,422.812L636.748,422.912L636.725,423.013L636.702,423.113L636.68,423.213L636.66,423.314L636.64,423.414L636.621,423.515L636.602,423.615L636.585,423.716L636.568,423.816L636.565,423.838L636.552,423.916L636.536,424.017L636.52,424.117L636.506,424.217L636.492,424.318L636.479,424.418L636.467,424.518L636.456,424.618L636.445,424.719L636.435,424.819L636.426,424.919L636.418,425.019L636.411,425.119L636.404,425.219L636.398,425.318L636.392,425.417L636.383,425.618L636.378,425.816L636.374,426.015L636.374,426.213L636.376,426.411L636.381,426.608L636.388,426.804L636.398,427L636.41,427.195L636.425,427.39L636.441,427.584L636.461,427.777L636.482,427.969L636.505,428.16L636.531,428.35L636.558,428.539L636.588,428.727L636.594,428.765L636.618,428.915L636.649,429.101L636.682,429.287L636.717,429.471L636.754,429.653L636.792,429.835L636.832,430.015L636.874,430.194L636.916,430.371L636.96,430.547L637.006,430.721L637.052,430.894L637.1,431.065L637.149,431.235L637.199,431.402L637.25,431.568L637.301,431.733L637.354,431.895L637.407,432.055L637.461,432.214L637.516,432.37L637.571,432.524L637.627,432.677L637.683,432.827L637.739,432.975L637.796,433.121L637.853,433.264L637.911,433.405L637.968,433.544L638.025,433.681L638.083,433.815L638.14,433.946L638.197,434.075L638.254,434.202L638.311,434.325L638.367,434.447L638.422,434.565L638.533,434.794L638.64,435.011L638.745,435.217L638.845,435.411L638.942,435.592L639.034,435.761L639.121,435.917L639.202,436.059L639.277,436.188L639.345,436.303L639.406,436.404L639.459,436.49L639.503,436.561L639.535,436.61L639.565,436.658L639.586,436.69L639.56,436.662L639.522,436.62L639.483,436.577L639.427,436.514L639.361,436.437L639.284,436.347L639.198,436.244L639.103,436.128L638.999,436L638.887,435.859L638.767,435.706L638.641,435.541L638.509,435.364L638.37,435.175L638.227,434.975L638.079,434.765L638.003,434.655L637.927,434.542L637.849,434.427L637.771,434.309L637.692,434.189L637.613,434.065L637.532,433.94L637.452,433.811L637.371,433.68L637.289,433.547L637.207,433.411L637.125,433.272L637.043,433.131L636.961,432.988L636.878,432.842L636.796,432.694L636.714,432.543L636.632,432.39L636.55,432.235L636.469,432.077L636.388,431.917L636.308,431.755L636.228,431.59L636.148,431.423L636.07,431.254L635.992,431.083L635.915,430.91L635.839,430.734L635.764,430.556L635.69,430.376L635.617,430.195L635.546,430.01L635.475,429.824L635.406,429.636L635.339,429.446L635.273,429.254L635.221,429.099L635.209,429.06L635.148,428.863L635.088,428.665L635.031,428.464L634.975,428.262L634.922,428.058L634.87,427.852L634.821,427.644L634.774,427.435L634.729,427.223L634.687,427.01L634.647,426.795L634.61,426.579L634.575,426.361L634.543,426.141L634.514,425.919L634.488,425.696L634.464,425.473L634.454,425.358L634.444,425.245L634.435,425.131L634.427,425.017L634.42,424.902L634.413,424.787L634.408,424.672L634.403,424.556L634.399,424.44L634.396,424.323L634.394,424.207L634.392,424.089L634.392,423.972L634.392,423.854L634.394,423.736L634.395,423.643L634.396,423.617L634.4,423.499L634.406,423.379L634.412,423.26L634.419,423.14L634.427,423.02L634.436,422.9L634.447,422.779L634.458,422.658L634.47,422.537L634.483,422.415L634.497,422.294L634.513,422.172L634.529,422.049L634.547,421.927L634.565,421.804L634.585,421.681L634.606,421.557L634.628,421.434L634.651,421.31L634.675,421.186L634.701,421.061L634.702,421.053L634.728,420.937L634.757,420.813L634.787,420.688L634.819,420.564L634.851,420.439L634.885,420.314L634.92,420.188L634.956,420.063L634.994,419.937L635.032,419.812L635.072,419.686L635.113,419.56L635.156,419.434L635.2,419.307L635.245,419.181L635.291,419.055L635.339,418.928L635.365,418.86L635.389,418.802L635.443,418.677L635.497,418.551L635.553,418.426L635.61,418.3L635.669,418.175L635.729,418.049L635.79,417.924L635.8,417.904L635.854,417.799L635.92,417.675L635.987,417.55L636.056,417.426L636.126,417.302L636.197,417.177L636.27,417.053L636.344,416.929L636.419,416.805L636.497,416.681L636.571,416.563L636.575,416.558L636.656,416.435L636.738,416.312L636.822,416.189L636.907,416.067L636.994,415.945L637.083,415.823L637.169,415.706L637.33,415.486L637.485,415.272L637.636,415.058L637.785,414.843L637.931,414.63L638.073,414.416L638.213,414.203L638.35,413.99L638.484,413.777L638.575,413.629L638.615,413.564L638.745,413.353L638.872,413.142L638.997,412.931L639.118,412.721L639.236,412.511L639.352,412.301L639.465,412.091L639.575,411.881L639.682,411.672L639.787,411.463L639.889,411.255L639.988,411.047L640.084,410.839L640.177,410.634L640.178,410.632L640.27,410.425L640.361,410.219L640.448,410.014L640.533,409.809L640.615,409.604L640.692,409.406L640.695,409.399L640.775,409.196L640.852,408.993L640.927,408.791L640.999,408.589L641.009,408.561L641.074,408.388L641.147,408.189L641.217,407.989L641.285,407.79L641.35,407.59L641.413,407.391L641.473,407.193L641.531,406.994L641.587,406.796L641.639,406.598L641.66,406.519L641.691,406.401L641.742,406.204L641.789,406.007L641.835,405.81L641.878,405.614L641.919,405.418L641.957,405.222L641.993,405.027L642.026,404.831L642.057,404.636L642.086,404.442L642.112,404.247L642.136,404.053L642.152,403.906L642.158,403.859L642.179,403.666L642.197,403.473L642.213,403.28L642.227,403.087L642.239,402.895L642.248,402.703L642.255,402.512L642.259,402.32L642.262,402.129L642.262,401.939L642.259,401.749L642.255,401.559L642.248,401.369L642.239,401.18L642.227,400.991L642.213,400.803L642.198,400.615L642.179,400.428L642.159,400.241L642.136,400.054L642.111,399.868L642.084,399.682L642.055,399.497L642.023,399.312L641.989,399.128L641.953,398.944L641.915,398.761L641.875,398.578L641.832,398.396L641.787,398.215L641.74,398.034L641.73,397.996L641.692,397.853L641.642,397.673L641.589,397.493L641.534,397.314L641.478,397.135L641.419,396.957L641.358,396.78L641.294,396.603L641.229,396.427L641.161,396.252L641.091,396.077L641.02,395.903L640.946,395.729L640.87,395.557L640.791,395.385L640.711,395.214L640.629,395.043L640.544,394.873L640.457,394.704L640.369,394.536L640.278,394.369L640.185,394.202L640.09,394.037L639.993,393.872L639.894,393.708L639.793,393.545L639.689,393.382L639.584,393.221L639.477,393.06L639.368,392.901L639.256,392.742L639.143,392.585L639.028,392.428L638.91,392.272L638.791,392.118L638.67,391.964L638.547,391.811L638.421,391.66L638.358,391.584L638.294,391.509L638.369,391.573Z"/>
                </g>
            </g>
        </g>
    </g>
</svg>
